<svg width="124" height="96" viewBox="0 0 124 96" xmlns="http://www.w3.org/2000/svg" xmlns:xlink="http://www.w3.org/1999/xlink"><defs><path id="a" d="M.03.212h123.945v95.835H.03z"/></defs><g fill="none" fill-rule="evenodd"><path d="M108.425 36.176c-1.911-2.556-2.555-6.057-3.766-10.008-.717-2.33-4.279-3.299-6.226-4.964-2.04-1.745-3.065-3.634-5.103-5.53-2.72-.517-5.555-.83-8.472-1.006C84.044 10.451 75.197 1.583 73.33.633c.259 3.412-.204 6.735.172 9.97-4.694-3.42-13.52-1.903-21.557-2.024-6.734-.1-12.833-.899-18.224-2.943 1.555 3.281 4.938 6.405 8.095 8.045C31.37 15.755 23.66 22.084 14.69 25.007c2.964.917 6.326 1.129 10.139.546-4.718 5.435-8.907 11.172-16.978 14.695 3.468.617 7.41.396 11.16.522C12.857 43.855 5.426 43.608.47 42.282c2.95 5.897 8.888 6.526 13.402 9.665-3.373-.905-7.389-.672-11.047-1.067 3.619 4.115 7.804 7.35 11.348 11.516 3.543 4.167 6.69 8.885 11.007 12.124 8.25 6.199 20.253 6.53 30.925 8.178 10.9 1.683 22.03 2.323 29.201 11.222-.857-12.857-13.046-16.923-18.74-25.406-1.437-2.14-2.446-6.067-2.355-8.6.139-3.888 3.471-12.546 9.705-10.379 1.553.538 3.585 3.12 5.49 4.139 3.533 1.891 7.747 2.053 11.291 3.826 3.463 1.73 6.361 4.54 8.982 7.543.41.473 1.558 2.651 1.76 3.625.243 1.146.425 1.939.756 2.746.702 1.731 2.664 2.323 5.406 1.98 1.715-.217 3.206-1.526 4.873-1.857 1.17-.233 3.122.44 5.025-.357 1.61-.674 1.763-2.887 2.784-5.262.626-1.457 3.516-5.13 3.442-6.6-.128-2.53-2.032-5.258-3.252-7.195-3.44-5.47-8.157-10.744-12.049-15.947" fill="#FFFFFE"/><path d="M92.069 22.063c.135 3.875 5.234 4.696 5.958 8.331-1.497-.399-1.6-2.085-2.524-2.342-1.709 2.412 1.597 3.655 3.085 3.843.655 1.783 2.635 4.194 4.098 3.683-2.052-2.116-1.418-4.902-2.858-7.13-1.753-2.713-6.189-3.784-7.759-6.385M74.07 18.86C21.14 23.064 31.503 64.782 33.875 71.14c-.11-.205.277.283.267.292-.634-7.846-7.646-45.106 39.782-52.191-.003-.003.14-.376.144-.38M118.835 55.907c.153.107-1.56-.117-1.12 2.223.396 2.112 2.153 2.32 2.153 2.32s-.579 1.674-1.858 1.683c-1.17.009-2.119-1.45-2.119-3.24 0-1.79.95-3.24 2.12-3.24.292 0 .576.081.824.254M83.74 35.475c13.123.692 18.429 11.56 19.169 15.556.02-.043-.263.114-.261.116-1.024-3.352-8.948-14.173-18.934-15.31 0 0 .028-.361.027-.362M85.556 93.903c-.06-.855-.17-1.67-.323-2.452.183 1.017.289 2.225.349 3.207l.025.031-.051-.786" fill="#E06E2B"/><g><mask id="b" fill="white"><use xlink:href="#a"/></mask><path d="M85.211 91.327l-.008-.043h-.008c.012.056.026.11.038.168l-.022-.125" fill="#E06E2B" mask="url(#b)"/><path d="M120.95 61.116c-.38.613-1.447 1.953-2.08 3.067-1.208 2.132-.999 4.736-1.968 5.086-6.857 2.478.277-8.332-10.317-5.145 2.662.777 2.403 3.837 4.004 5.975-3.232 1.972-5.026 1.563-7.026.246-.07-20.467-20.102-14.684-24.839-19.446-5.257-5.286-3.668-13.15.967-15.546-21.99.723-23.285 22.885-18.61 30.965 6.921 11.961 17.442 13.313 20.75 22.05-3.252-3.762-10.949-5.756-19.448-7.144-5.274-5.006-10.804-13.6-9.296-26.818a5.21 5.21 0 0 1-.218-.157c-2.381 12.918.084 21.074 4.334 26.203-9.732-1.338-19.556-2.207-24.331-4.249-1.597-.683-5.697-1.923-7.356-7.266-3.346-10.782-3.59-52.797 50.27-52.797 1.391 1.207 2.97 1.907 5.262 1.53-2.81-.892-7.2-1.616-5.716-12.559 1.261 2.735 1.228 5.393 2.42 7.92.947 2.011 3.632 2.787 4.625 3.888-.3-2.206-2.904-2.6-3.738-4.39-.646-1.384-.666-1.68-1.208-3.442-.39-1.265-.85-2.172-.98-3.556 2.346 3.384 6.907 7.436 6.907 10.734 2.69.099 5.655.352 8.254.775 2.007 1.237 3.197 4.05 6.203 6.333 1.423 1.082 3.813 1.502 4.623 3.28.667 1.46 1.326 3.985 1.758 5.815.734 3.103 2.5 4.445 4.214 6.87 1.163 1.645 8.977 10.723 10.794 14.52 2.072 4.334 3.889 3.806 1.747 7.258zM7.322 53.026c4.026.638 6.462.638 11.865.425-4.71-5.202-9.004-5.418-14.407-8.818 4.979 2.23 14.453.17 17.268-5.63-3.179.212-5.385.065-8.37-.107C21.624 35.39 23 28.166 30.946 23.172c-3.942 1.281-6.147 1.32-9.216 1.063 7.48-2.567 13.21-8.25 21.716-9.137 1.898-.197 4.773.343 6.674-.638-4.544-.374-9.882-3.012-12.182-6.162 10.167 5.69 29.093-3.125 36.515 6.223-56.976 0-54.22 45.441-51.242 55.43-5.505-6.473-9.533-13.738-15.889-16.925zm116.653 6.293c-.143-2.655-2.077-5.394-3.29-7.329-3.458-5.493-8.18-10.77-12.062-15.962-1.866-2.486-2.513-5.964-3.728-9.933-.815-2.524-4.438-3.45-6.302-5.08-2.002-1.708-3.025-3.593-5.092-5.524l-.054-.049-.069-.013c-2.676-.508-5.46-.82-8.318-.997C83.955 9.97 75.394 1.444 73.443.41L73.05.212l.034.44c.062.817.08 1.632.08 2.445 0 1.473-.066 2.937-.067 4.392.001.874.025 1.744.102 2.611-2.603-1.65-6.217-2-10.187-2.003-3.243 0-6.728.241-10.102.24-.322 0-.644-.001-.963-.005-6.715-.1-12.784-.898-18.14-2.928l-.575-.218.264.557c1.493 3.143 4.588 6.101 7.609 7.833-10.183 2.222-17.771 8.36-26.49 11.194l-.742.243.747.23c1.875.582 3.91.884 6.11.883 1.117 0 2.277-.077 3.481-.234-4.554 5.293-8.7 10.742-16.457 14.129l-.752.329.808.144c3.182.564 6.728.433 10.143.498-3.243 1.42-6.79 1.975-10.101 1.975-2.694 0-5.233-.368-7.318-.925L0 41.899l.248.494c2.766 5.505 8.045 6.51 12.31 9.008-3.1-.56-6.551-.426-9.707-.767l-.634-.069.422.48c3.64 4.137 7.827 7.37 11.348 11.513 3.532 4.15 6.685 8.885 11.044 12.162 8.002 6.003 22.055 6.833 31.037 8.224l.075.01v-.005c8.372 1.294 16.904 1.964 23.734 6.292.65.414 1.522.952 2.437 1.776.434.39.877.85 1.313 1.39.153.19.307.385.457.597.785 1.105 1.269 2.078 1.56 3.043-.011-.332-.03-.819-.065-1.389-.06-.982-.165-2.19-.346-3.207l-.038-.168c-2.239-11.01-13.226-15.11-18.424-22.907-1.338-1.984-2.324-5.667-2.318-8.138 0-.107 0-.212.006-.311.099-3.4 2.807-10.55 7.53-10.486a5.59 5.59 0 0 1 1.847.329c1.426.474 3.487 3.06 5.454 4.124 3.603 1.92 7.822 2.081 11.298 3.828 3.414 1.707 6.295 4.492 8.907 7.485.358.395 1.53 2.627 1.704 3.513.243 1.147.427 1.957.765 2.79.624 1.541 2.185 2.233 4.231 2.226.453 0 .933-.033 1.437-.097 1.817-.24 3.315-1.558 4.89-1.857.168-.034.365-.048.584-.048.586 0 1.324.097 2.13.098.745 0 1.552-.085 2.357-.421 1.802-.799 1.9-3.081 2.919-5.394.286-.674 1.148-1.944 1.935-3.214.785-1.286 1.513-2.54 1.528-3.428v-.056z" fill="#E06E2B" mask="url(#b)"/></g><path d="M85.656 96.09l-.012-.043c.01.284.012.458.012.458v-.414M85.607 94.69l-.051-.787c-.06-.855-.17-1.67-.323-2.452.183 1.017.289 2.225.349 3.207l.025.031" fill="#FFFFFE"/><path d="M23.21 69.95c-5.505-6.472-9.533-13.737-15.889-16.924 4.026.638 6.462.638 11.865.425-4.71-5.202-9.004-5.418-14.407-8.818 4.979 2.23 14.453.17 17.268-5.63-3.179.212-5.385.065-8.37-.107C21.624 35.39 23 28.166 30.946 23.172c-3.942 1.281-6.147 1.32-9.216 1.063 7.48-2.567 13.21-8.25 21.716-9.137 1.898-.197 4.773.343 6.674-.638-4.544-.374-9.882-3.012-12.182-6.162 10.167 5.69 29.093-3.125 36.515 6.223-56.976 0-54.22 45.441-51.242 55.43" fill="#1E437B"/></g></svg>